<svg width="395.52" viewBox="6.1 -35.2 184.69 35.4" height="75.806" data-palette-color="#696578" xmlns="http://www.w3.org/2000/svg"><path d="M18.75-33.65q-5.5 0-8.22 2.57Q7.8-28.5 7.8-23.7v6.25h17.8v1.5H7.8V0H6.1v-23.85q0-5.25 3.23-8.3 3.22-3.05 9.42-3.05 6.4 0 10.2 3l-.8 1.35q-3.65-2.8-9.4-2.8ZM50 .2q-5.1 0-9.23-2.3-4.12-2.3-6.47-6.35-2.35-4.05-2.35-9.05 0-5 2.35-9.05 2.35-4.05 6.47-6.35 4.13-2.3 9.23-2.3 5.1 0 9.25 2.3t6.5 6.35q2.35 4.05 2.35 9.05 0 5-2.35 9.05-2.35 4.05-6.5 6.35T50 .2Zm0-1.55q4.6 0 8.35-2.1t5.9-5.8q2.15-3.7 2.15-8.25t-2.15-8.25q-2.15-3.7-5.9-5.8-3.75-2.1-8.35-2.1t-8.33 2.1q-3.72 2.1-5.87 5.8-2.15 3.7-2.15 8.25t2.15 8.25q2.15 3.7 5.87 5.8 3.73 2.1 8.33 2.1ZM103.95 0h-2L93.3-12.05q-1.7.3-3.8.3H79.05V0h-1.7v-35H89.5q6.55 0 10.22 3.07 3.68 3.08 3.68 8.53 0 4.2-2.18 7.02-2.17 2.83-6.22 3.93L103.95 0Zm-24.9-13.3H89.6q5.85 0 9-2.63 3.15-2.62 3.15-7.47 0-4.8-3.15-7.43-3.15-2.62-9-2.62H79.05v20.15ZM113.24 0v-35h1.7v33.45h20.5V0h-22.2Zm41.8-33.45h-7.55v31.9h7.55V0h-16.8v-1.55h7.55v-31.9h-7.55V-35h16.8v1.55ZM188.99-35h1.8l-15.7 35h-1.65l-15.7-35h1.9l14.7 32.8L188.99-35Z" fill="#696578" class="undefined-text-0" data-fill-palette-color="primary"/></svg>