    <svg width="395.52" viewBox="6.099999904632568 -35.20000076293945 184.6899871826172 35.400001525878906" height="75.80621548456959" data-palette-color="#d2d6dc"><path d="M18.75-33.65Q13.25-33.65 10.53-31.08 7.8-28.5 7.8-23.7L7.8-23.7 7.8-17.45 25.6-17.45 25.6-15.95 7.8-15.95 7.8 0 6.1 0 6.1-23.85Q6.1-29.1 9.33-32.15 12.55-35.2 18.75-35.2L18.75-35.2Q25.15-35.2 28.95-32.2L28.95-32.2 28.15-30.85Q24.5-33.65 18.75-33.65L18.75-33.65ZM50 0.2Q44.9 0.2 40.77-2.1 36.65-4.4 34.3-8.45 31.95-12.5 31.95-17.5L31.95-17.5Q31.95-22.5 34.3-26.55 36.65-30.6 40.77-32.9 44.9-35.2 50-35.2L50-35.2Q55.1-35.2 59.25-32.9 63.4-30.6 65.75-26.55 68.1-22.5 68.1-17.5L68.1-17.5Q68.1-12.5 65.75-8.45 63.4-4.4 59.25-2.1 55.1 0.2 50 0.2L50 0.2ZM50-1.35Q54.6-1.35 58.35-3.45 62.1-5.55 64.25-9.25 66.4-12.95 66.4-17.5L66.4-17.5Q66.4-22.05 64.25-25.75 62.1-29.45 58.35-31.55 54.6-33.65 50-33.65L50-33.65Q45.4-33.65 41.67-31.55 37.95-29.45 35.8-25.75 33.65-22.05 33.65-17.5L33.65-17.5Q33.65-12.95 35.8-9.25 37.95-5.55 41.67-3.45 45.4-1.35 50-1.35L50-1.35ZM103.95 0L101.95 0 93.3-12.05Q91.6-11.75 89.5-11.75L89.5-11.75 79.05-11.75 79.05 0 77.35 0 77.35-35 89.5-35Q96.05-35 99.72-31.93 103.4-28.85 103.4-23.4L103.4-23.4Q103.4-19.2 101.22-16.38 99.05-13.55 95-12.45L95-12.45 103.95 0ZM79.05-13.3L89.6-13.3Q95.45-13.3 98.6-15.93 101.75-18.55 101.75-23.4L101.75-23.4Q101.75-28.2 98.6-30.83 95.45-33.45 89.6-33.45L89.6-33.45 79.05-33.45 79.05-13.3ZM113.24 0L113.24-35 114.94-35 114.94-1.55 135.44-1.55 135.44 0 113.24 0ZM155.04-33.45L147.49-33.45 147.49-1.55 155.04-1.55 155.04 0 138.24 0 138.24-1.55 145.79-1.55 145.79-33.45 138.24-33.45 138.24-35 155.04-35 155.04-33.45ZM188.99-35L190.79-35 175.09 0 173.44 0 157.74-35 159.64-35 174.34-2.2 188.99-35Z" opacity="1" transform="matrix(1,0,0,1,0,0)" fill="#d2d6dc" class="undefined-text-0" data-fill-palette-color="primary" id="text-0"></path></svg>
